<svg width="480" height="344" viewBox="0 0 480 344" fill="none" xmlns="http://www.w3.org/2000/svg">
<g clip-path="url(#clip0_231_586)">
<path opacity="0.3" d="M81.7663 144.621C41.1021 151.845 12.3608 187.292 17.08 226.182C19.5939 246.782 29.782 265.071 55.9947 270.324C125.532 284.318 388.026 336.995 439.599 245.722C479.807 174.594 455.844 125.345 418.502 94.5186C381.161 63.6923 303.831 70.093 239.836 91.1932C192.247 106.923 156.861 131.26 81.7663 144.621Z" fill="#E6E6E6"/>
<path opacity="0.45" d="M243.114 343.543C373.853 343.543 479.837 335.703 479.837 326.033C479.837 316.362 373.853 308.523 243.114 308.523C112.376 308.523 6.39209 316.362 6.39209 326.033C6.39209 335.703 112.376 343.543 243.114 343.543Z" fill="#E6E6E6"/>
<path d="M110.39 82.9237C125.93 82.9237 138.528 70.3146 138.528 54.7606C138.528 39.2066 125.93 26.5975 110.39 26.5975C94.8493 26.5975 82.2512 39.2066 82.2512 54.7606C82.2512 70.3146 94.8493 82.9237 110.39 82.9237Z" fill="#FFD200"/>
<path opacity="0.15" d="M110.39 108.454C140.017 108.454 164.035 84.4147 164.035 54.7612C164.035 25.1078 140.017 1.06897 110.39 1.06897C80.7623 1.06897 56.7444 25.1078 56.7444 54.7612C56.7444 84.4147 80.7623 108.454 110.39 108.454Z" fill="#FFD200"/>
<path d="M228.545 325.224C270.092 325.224 303.772 291.514 303.772 249.931C303.772 208.348 270.092 174.638 228.545 174.638C186.998 174.638 153.318 208.348 153.318 249.931C153.318 291.514 186.998 325.224 228.545 325.224Z" fill="#24285B"/>
<path d="M228.545 297.325C254.698 297.325 275.898 276.106 275.898 249.931C275.898 223.755 254.698 202.536 228.545 202.536C202.393 202.536 181.192 223.755 181.192 249.931C181.192 276.106 202.393 297.325 228.545 297.325Z" fill="white"/>
<path d="M137.72 267.897C142.704 267.897 144.497 269.692 144.497 274.666V283.244C144.497 288.232 143.027 290.027 137.72 290.027H123.974V316.145C123.974 321.118 122.18 322.914 117.197 322.914H107.435C102.466 322.914 100.672 321.118 100.672 316.145V290.027H34.9422C29.9731 290.027 28.1795 288.232 28.1795 283.244V276.063C28.0459 273.157 28.8725 270.287 30.5318 267.897L96.6881 185.747C97.7964 184.258 99.2382 183.049 100.898 182.219C102.557 181.388 104.389 180.959 106.244 180.965H117.27C122.254 180.965 124.048 182.363 124.048 187.748V267.897H137.72ZM100.672 214.455L57.4354 267.897H100.672V214.455Z" fill="#4094F7"/>
<path d="M422.207 267.897C427.191 267.897 428.984 269.692 428.984 274.666V283.244C428.984 288.232 427.588 290.027 422.207 290.027H408.461V316.145C408.461 321.118 406.668 322.914 401.684 322.914H391.922C386.953 322.914 385.16 321.118 385.16 316.145V290.027H319.415C314.446 290.027 312.652 288.232 312.652 283.244V276.063C312.527 273.153 313.364 270.283 315.034 267.897L381.19 185.747C382.298 184.258 383.74 183.049 385.4 182.219C387.059 181.388 388.891 180.959 390.746 180.965H401.699C406.682 180.965 408.476 182.363 408.476 187.748V267.897H422.207ZM385.16 214.455L341.923 267.897H385.16V214.455Z" fill="#4094F7"/>
<path opacity="0.58" d="M392.701 164.926C392.701 164.926 380.19 161.513 377.47 149.844C377.47 149.844 396.862 145.93 397.42 165.956L392.701 164.926Z" fill="#4094F7"/>
<path opacity="0.73" d="M394.245 163.69C394.245 163.69 385.497 149.844 393.186 136.91C393.186 136.91 407.888 146.283 401.39 163.72L394.245 163.69Z" fill="#4094F7"/>
<path d="M396.494 163.705C396.494 163.705 401.11 149.08 415.091 146.313C415.091 146.313 417.708 155.804 406.035 163.735L396.494 163.705Z" fill="#4094F7"/>
<path d="M387.424 163.366L389.952 180.744L405.933 180.818L408.285 163.455L387.424 163.366Z" fill="#24285B"/>
<path d="M237.645 151.066C237.645 151.066 239.703 160.998 238.807 167.884C238.723 168.554 238.508 169.2 238.173 169.786C237.838 170.371 237.39 170.884 236.855 171.295C236.32 171.706 235.709 172.006 235.058 172.178C234.406 172.35 233.726 172.391 233.058 172.298C229.604 171.798 225.076 170.121 223.326 164.941L219.268 156.481C218.636 154.702 218.569 152.771 219.077 150.953C219.585 149.135 220.643 147.519 222.106 146.328C227.31 141.531 236.69 145.018 237.645 151.066Z" fill="#F4A28C"/>
<path d="M220.004 157.967L218.68 191.236L237.043 190.647L230.633 166.678L220.004 157.967Z" fill="#F4A28C"/>
<path d="M235.19 151.772C232.095 152.269 228.952 152.403 225.826 152.169C226.885 153.434 227.552 154.981 227.745 156.62C227.938 158.259 227.649 159.918 226.913 161.395C226.227 162.84 225.059 164.001 223.61 164.677C222.161 165.354 220.522 165.504 218.975 165.103L217.607 152.125C217.344 150.276 217.588 148.39 218.313 146.669C219.038 144.948 220.217 143.457 221.724 142.355C223.02 141.386 224.381 140.506 225.796 139.721C229.339 137.779 235.087 139.618 238.131 136.705C238.44 136.416 238.818 136.212 239.229 136.113C239.639 136.013 240.069 136.022 240.475 136.137C240.882 136.253 241.252 136.471 241.549 136.772C241.847 137.072 242.062 137.444 242.173 137.852C243.232 141.722 243.261 148.005 238.189 150.786C237.253 151.283 236.239 151.616 235.19 151.772Z" fill="#24285B"/>
<path d="M227.957 160.969C227.957 160.969 227.428 157.084 224.546 157.731C221.665 158.379 222.4 163.985 226.428 164.029L227.957 160.969Z" fill="#F4A28C"/>
<path d="M238.616 157.393L241.894 160.939C242.08 161.142 242.211 161.389 242.276 161.656C242.341 161.923 242.338 162.203 242.266 162.469C242.194 162.735 242.056 162.978 241.865 163.176C241.674 163.374 241.436 163.521 241.174 163.602L237.41 164.779L238.616 157.393Z" fill="#F4A28C"/>
<path opacity="0.31" d="M232.265 171.872C229.928 171.565 227.731 170.584 225.943 169.046C225.943 169.046 226.913 175.065 234.264 180.244L232.265 171.872Z" fill="#CE8172"/>
<path d="M218.71 191.235L237.072 190.647C237.072 190.647 265.916 185.747 275.928 209.29C285.94 232.833 273.105 266.101 273.105 266.101C273.105 266.101 262.667 301.224 218.71 297.34C218.71 297.34 182.148 295.221 178.016 245.06C177.829 242.872 177.495 240.699 177.017 238.556C175.341 230.714 174.371 206.921 218.71 191.235Z" fill="#4094F7"/>
<path opacity="0.08" d="M194.115 222.488C194.115 222.488 203.906 223.563 217.504 246.355C231.103 269.147 257.801 260.79 272.855 243.927L244.923 280.919L213.638 278.402L196.628 233.083L194.115 222.488Z" fill="black"/>
<path d="M301.334 169.734L295.957 170.453L298.048 186.117L303.425 185.398L301.334 169.734Z" fill="#FFD200"/>
<path opacity="0.08" d="M301.334 169.734L295.957 170.453L298.048 186.117L303.425 185.398L301.334 169.734Z" fill="black"/>
<path d="M304.357 180.848L296.094 181.953L298.779 202.065L307.042 200.961L304.357 180.848Z" fill="#24285B"/>
<path d="M293.687 137.322C290.2 137.79 286.93 139.282 284.29 141.609C281.651 143.937 279.76 146.996 278.857 150.399C277.953 153.802 278.079 157.397 279.217 160.728C280.355 164.06 282.454 166.979 285.25 169.117C288.046 171.255 291.412 172.515 294.923 172.738C298.434 172.961 301.932 172.137 304.975 170.37C308.018 168.603 310.469 165.973 312.019 162.812C313.569 159.651 314.147 156.101 313.681 152.611C313.372 150.293 312.609 148.058 311.437 146.036C310.264 144.013 308.705 142.241 306.848 140.821C304.992 139.401 302.874 138.362 300.616 137.761C298.357 137.161 296.003 137.012 293.687 137.322ZM297.715 167.428C295.251 167.761 292.742 167.355 290.508 166.261C288.274 165.168 286.414 163.435 285.164 161.283C283.914 159.13 283.331 156.656 283.487 154.171C283.643 151.687 284.532 149.304 286.041 147.326C287.55 145.347 289.612 143.861 291.966 143.056C294.319 142.251 296.859 142.163 299.262 142.803C301.666 143.442 303.826 144.782 305.469 146.651C307.112 148.52 308.164 150.834 308.492 153.302C308.927 156.595 308.046 159.928 306.038 162.573C304.031 165.219 301.061 166.964 297.774 167.428H297.715Z" fill="#FFD200"/>
<path d="M296.142 167.663C303.117 167.663 308.771 162.004 308.771 155.024C308.771 148.043 303.117 142.384 296.142 142.384C289.168 142.384 283.514 148.043 283.514 155.024C283.514 162.004 289.168 167.663 296.142 167.663Z" fill="white"/>
<path d="M177.546 224.961C177.993 223.234 178.939 221.676 180.264 220.483C181.589 219.29 183.236 218.513 184.999 218.25C186.762 217.986 188.563 218.247 190.179 219.001C191.794 219.755 193.153 220.968 194.085 222.489C201.102 233.857 207.009 245.875 211.727 258.377C222.238 286.422 273.781 267.926 292.805 202.536L303.655 209.29C303.655 209.29 288.689 294.22 228.442 297.34C228.442 297.34 190.836 304.962 179.413 258.774C179.413 258.774 176.473 250.078 176.296 245.163L175.502 239.631C175.381 234.718 176.035 229.816 177.443 225.108L177.546 224.961Z" fill="#4094F7"/>
<path opacity="0.39" d="M177.546 224.961C177.993 223.234 178.939 221.676 180.264 220.483C181.589 219.29 183.236 218.513 184.999 218.25C186.762 217.986 188.563 218.247 190.179 219.001C191.794 219.755 193.153 220.968 194.085 222.489C201.102 233.857 207.009 245.875 211.727 258.377C222.238 286.422 273.781 267.926 292.805 202.536L303.655 209.29C303.655 209.29 288.689 294.22 228.442 297.34C228.442 297.34 190.836 304.962 179.413 258.774C179.413 258.774 176.473 250.078 176.296 245.163L175.502 239.631C175.381 234.718 176.035 229.816 177.443 225.108L177.546 224.961Z" fill="white"/>
<path d="M295.554 204.184C295.554 204.184 296.657 190.191 302.42 190.22C308.183 190.25 321.723 200.608 300.818 207.451L295.554 204.184Z" fill="#F4A28C"/>
<path d="M445.832 97.3438C445.832 94.7058 444.785 92.1758 442.922 90.3104C441.058 88.445 438.53 87.397 435.894 87.397C435.357 87.3966 434.821 87.4409 434.292 87.5294C433.151 85.3994 431.455 83.6182 429.384 82.3747C427.314 81.1313 424.945 80.4719 422.531 80.4666H422.045C422.629 78.1202 422.67 75.6717 422.167 73.3069C421.664 70.9421 420.629 68.723 419.141 66.8181C417.653 64.9132 415.752 63.3724 413.58 62.3128C411.409 61.2532 409.025 60.7025 406.609 60.7025C404.193 60.7025 401.809 61.2532 399.638 62.3128C397.466 63.3724 395.565 64.9132 394.077 66.8181C392.589 68.723 391.554 70.9421 391.051 73.3069C390.548 75.6717 390.589 78.1202 391.172 80.4666H390.687C388.89 80.407 387.099 80.7098 385.422 81.357C383.744 82.0042 382.213 82.9826 380.921 84.2339C379.629 85.4852 378.601 86.9839 377.899 88.6408C377.197 90.2977 376.836 92.079 376.836 93.8786C376.836 95.6783 377.197 97.4596 377.899 99.1165C378.601 100.773 379.629 102.272 380.921 103.523C382.213 104.775 383.744 105.753 385.422 106.4C387.099 107.047 388.89 107.35 390.687 107.291H437.188V107.202C439.577 106.885 441.77 105.711 443.36 103.898C444.95 102.085 445.828 99.7561 445.832 97.3438Z" fill="#E6E6E6"/>
<path d="M59.4936 195.797C59.4936 194.676 59.273 193.566 58.8445 192.531C58.416 191.495 57.7879 190.555 56.9961 189.762C56.2044 188.97 55.2644 188.341 54.2298 187.912C53.1953 187.483 52.0865 187.263 50.9668 187.263C50.5089 187.271 50.0522 187.311 49.5995 187.38C48.6155 185.55 47.1538 184.02 45.37 182.955C43.5863 181.89 41.5473 181.33 39.4703 181.333H39.0586C39.5644 179.319 39.6046 177.216 39.1762 175.184C38.7478 173.152 37.862 171.245 36.5862 169.607C35.3104 167.97 33.6783 166.645 31.8139 165.734C29.9496 164.823 27.9021 164.349 25.8273 164.349C23.7526 164.349 21.7051 164.823 19.8408 165.734C17.9764 166.645 16.3443 167.97 15.0685 169.607C13.7927 171.245 12.9069 173.152 12.4785 175.184C12.05 177.216 12.0902 179.319 12.5961 181.333H12.1844C10.6411 181.277 9.1024 181.534 7.66027 182.087C6.21815 182.64 4.90213 183.478 3.79076 184.551C2.67939 185.625 1.79546 186.911 1.19173 188.334C0.588007 189.756 0.276855 191.286 0.276855 192.832C0.276855 194.378 0.588007 195.907 1.19173 197.33C1.79546 198.753 2.67939 200.039 3.79076 201.112C4.90213 202.186 6.21815 203.024 7.66027 203.577C9.1024 204.13 10.6411 204.386 12.1844 204.331H52.0694V204.258C54.1209 203.987 56.0043 202.98 57.3698 201.423C58.7353 199.867 59.49 197.868 59.4936 195.797Z" fill="#E6E6E6"/>
</g>
<defs>
<clipPath id="clip0_231_586">
<rect width="480" height="342.37" fill="white" transform="translate(0 0.815186)"/>
</clipPath>
</defs>
</svg>
