<svg width="14" height="11" viewBox="0 0 14 11" fill="none" xmlns="http://www.w3.org/2000/svg">
<path d="M0.00426134 11H1.60014V3.76136H1.6946L5.94531 11H7.49645V0.818182H5.91051V8.09162H5.81605L1.57031 0.818182H0.00426134V11ZM11.0014 6.04332C12.4929 6.04332 13.4077 5.02415 13.4077 3.61719V3.10014C13.4077 1.69815 12.4879 0.674005 10.9915 0.674005C9.51492 0.674005 8.57528 1.69815 8.57528 3.10014V3.61719C8.57528 5.02912 9.51492 6.04332 11.0014 6.04332ZM11.0014 4.88991C10.3004 4.88991 9.9375 4.38778 9.9375 3.61719V3.10014C9.9375 2.33949 10.2955 1.8473 10.9915 1.8473C11.6875 1.8473 12.0554 2.33949 12.0554 3.10014V3.61719C12.0554 4.38778 11.6825 4.88991 11.0014 4.88991ZM8.81889 7.98722H13.1939V6.88849H8.81889V7.98722Z" fill="#1A2024"/>
</svg>
